<?xml version="1.0" encoding="us-ascii" standalone="no"?><svg xmlns="http://www.w3.org/2000/svg" xmlns:xlink="http://www.w3.org/1999/xlink" contentStyleType="text/css" height="638px" preserveAspectRatio="none" style="width:597px;height:638px;background:#FFFFFF;" version="1.1" viewBox="0 0 597 638" width="597px" zoomAndPan="magnify"><defs/><g><rect fill="none" height="22.6406" style="stroke:none;stroke-width:1.0;" width="564.5" x="15" y="12.4551"/><ellipse cx="110" cy="50.0957" fill="#222222" rx="10" ry="10" style="stroke:#222222;stroke-width:1.0;"/><rect fill="#F1F1F1" height="35.0938" rx="12.5" ry="12.5" style="stroke:#181818;stroke-width:0.5;" width="129" x="45.5" y="80.0957"/><text fill="#000000" font-family="sans-serif" font-size="12" lengthAdjust="spacing" textLength="109" x="55.5" y="102.5527">Create new account</text><rect fill="#F1F1F1" height="50.1875" rx="12.5" ry="12.5" style="stroke:#181818;stroke-width:0.5;" width="178" x="21" y="135.1895"/><text fill="#000000" font-family="sans-serif" font-size="12" lengthAdjust="spacing" textLength="158" x="31" y="157.6465">Provide personal information</text><text fill="#000000" font-family="sans-serif" font-size="12" lengthAdjust="spacing" textLength="130" x="31" y="172.7402">e.g. Bank infor, Address</text><rect fill="#F1F1F1" height="35.0938" rx="12.5" ry="12.5" style="stroke:#181818;stroke-width:0.5;" width="145" x="37.5" y="330.6582"/><text fill="#000000" font-family="sans-serif" font-size="12" lengthAdjust="spacing" textLength="125" x="47.5" y="353.1152">Submit preferred shifts</text><rect fill="#F1F1F1" height="35.0938" rx="12.5" ry="12.5" style="stroke:#181818;stroke-width:0.5;" width="161" x="29.5" y="551.0332"/><text fill="#000000" font-family="sans-serif" font-size="12" lengthAdjust="spacing" textLength="141" x="39.5" y="573.4902">Be able to view own shifts</text><ellipse cx="110" cy="616.127" fill="none" rx="10" ry="10" style="stroke:#222222;stroke-width:1.5;"/><line style="stroke:#222222;stroke-width:2.5;" x1="103.8128" x2="116.1872" y1="609.9398" y2="622.3141"/><line style="stroke:#222222;stroke-width:2.5;" x1="116.1872" x2="103.8128" y1="609.9398" y2="622.3141"/><line style="stroke:#000000;stroke-width:1.5;" x1="15" x2="15" y1="12.4551" y2="626.127"/><rect fill="#F1F1F1" height="50.1875" rx="12.5" ry="12.5" style="stroke:#181818;stroke-width:0.5;" width="174" x="209" y="205.377"/><text fill="#000000" font-family="sans-serif" font-size="12" lengthAdjust="spacing" textLength="124" x="219" y="227.834">Set working conditions</text><text fill="#000000" font-family="sans-serif" font-size="12" lengthAdjust="spacing" textLength="154" x="219" y="242.9277">e.g. Wage, employment type</text><rect fill="#F1F1F1" height="35.0938" rx="12.5" ry="12.5" style="stroke:#181818;stroke-width:0.5;" width="129" x="231.5" y="275.5645"/><text fill="#000000" font-family="sans-serif" font-size="12" lengthAdjust="spacing" textLength="109" x="241.5" y="298.0215">Create worklocation</text><rect fill="#F1F1F1" height="35.0938" rx="12.5" ry="12.5" style="stroke:#181818;stroke-width:0.5;" width="90" x="251" y="440.8457"/><text fill="#000000" font-family="sans-serif" font-size="12" lengthAdjust="spacing" textLength="70" x="261" y="463.3027">Create shifts</text><line style="stroke:#000000;stroke-width:1.5;" x1="203" x2="203" y1="12.4551" y2="626.127"/><rect fill="#F1F1F1" height="35.0938" rx="12.5" ry="12.5" style="stroke:#181818;stroke-width:0.5;" width="177" x="395" y="385.752"/><text fill="#000000" font-family="sans-serif" font-size="12" lengthAdjust="spacing" textLength="157" x="405" y="408.209">Send notification to manager</text><rect fill="#F1F1F1" height="35.0938" rx="12.5" ry="12.5" style="stroke:#181818;stroke-width:0.5;" width="181" x="393" y="495.9395"/><text fill="#000000" font-family="sans-serif" font-size="12" lengthAdjust="spacing" textLength="161" x="403" y="518.3965">Send notification to employee</text><line style="stroke:#000000;stroke-width:1.5;" x1="387" x2="387" y1="12.4551" y2="626.127"/><line style="stroke:#000000;stroke-width:1.5;" x1="578" x2="578" y1="12.4551" y2="626.127"/><line style="stroke:#181818;stroke-width:1.0;" x1="110" x2="110" y1="60.0957" y2="80.0957"/><polygon fill="#181818" points="106,70.0957,110,80.0957,114,70.0957,110,74.0957" style="stroke:#181818;stroke-width:1.0;"/><line style="stroke:#181818;stroke-width:1.0;" x1="110" x2="110" y1="115.1895" y2="135.1895"/><polygon fill="#181818" points="106,125.1895,110,135.1895,114,125.1895,110,129.1895" style="stroke:#181818;stroke-width:1.0;"/><line style="stroke:#181818;stroke-width:1.0;" x1="110" x2="110" y1="586.127" y2="606.127"/><polygon fill="#181818" points="106,596.127,110,606.127,114,596.127,110,600.127" style="stroke:#181818;stroke-width:1.0;"/><line style="stroke:#181818;stroke-width:1.0;" x1="296" x2="296" y1="255.5645" y2="275.5645"/><polygon fill="#181818" points="292,265.5645,296,275.5645,300,265.5645,296,269.5645" style="stroke:#181818;stroke-width:1.0;"/><line style="stroke:#181818;stroke-width:1.0;" x1="110" x2="110" y1="185.377" y2="190.377"/><line style="stroke:#181818;stroke-width:1.0;" x1="110" x2="296" y1="190.377" y2="190.377"/><line style="stroke:#181818;stroke-width:1.0;" x1="296" x2="296" y1="190.377" y2="205.377"/><polygon fill="#181818" points="292,195.377,296,205.377,300,195.377,296,199.377" style="stroke:#181818;stroke-width:1.0;"/><line style="stroke:#181818;stroke-width:1.0;" x1="296" x2="296" y1="310.6582" y2="315.6582"/><line style="stroke:#181818;stroke-width:1.0;" x1="296" x2="110" y1="315.6582" y2="315.6582"/><line style="stroke:#181818;stroke-width:1.0;" x1="110" x2="110" y1="315.6582" y2="330.6582"/><polygon fill="#181818" points="106,320.6582,110,330.6582,114,320.6582,110,324.6582" style="stroke:#181818;stroke-width:1.0;"/><line style="stroke:#181818;stroke-width:1.0;" x1="110" x2="110" y1="365.752" y2="370.752"/><line style="stroke:#181818;stroke-width:1.0;" x1="110" x2="483.5" y1="370.752" y2="370.752"/><line style="stroke:#181818;stroke-width:1.0;" x1="483.5" x2="483.5" y1="370.752" y2="385.752"/><polygon fill="#181818" points="479.5,375.752,483.5,385.752,487.5,375.752,483.5,379.752" style="stroke:#181818;stroke-width:1.0;"/><line style="stroke:#181818;stroke-width:1.0;" x1="483.5" x2="483.5" y1="420.8457" y2="425.8457"/><line style="stroke:#181818;stroke-width:1.0;" x1="483.5" x2="296" y1="425.8457" y2="425.8457"/><line style="stroke:#181818;stroke-width:1.0;" x1="296" x2="296" y1="425.8457" y2="440.8457"/><polygon fill="#181818" points="292,430.8457,296,440.8457,300,430.8457,296,434.8457" style="stroke:#181818;stroke-width:1.0;"/><line style="stroke:#181818;stroke-width:1.0;" x1="296" x2="296" y1="475.9395" y2="480.9395"/><line style="stroke:#181818;stroke-width:1.0;" x1="296" x2="483.5" y1="480.9395" y2="480.9395"/><line style="stroke:#181818;stroke-width:1.0;" x1="483.5" x2="483.5" y1="480.9395" y2="495.9395"/><polygon fill="#181818" points="479.5,485.9395,483.5,495.9395,487.5,485.9395,483.5,489.9395" style="stroke:#181818;stroke-width:1.0;"/><line style="stroke:#181818;stroke-width:1.0;" x1="483.5" x2="483.5" y1="531.0332" y2="536.0332"/><line style="stroke:#181818;stroke-width:1.0;" x1="483.5" x2="110" y1="536.0332" y2="536.0332"/><line style="stroke:#181818;stroke-width:1.0;" x1="110" x2="110" y1="536.0332" y2="551.0332"/><polygon fill="#181818" points="106,541.0332,110,551.0332,114,541.0332,110,545.0332" style="stroke:#181818;stroke-width:1.0;"/><text fill="#000000" font-family="sans-serif" font-size="18" lengthAdjust="spacing" textLength="79" x="69.5" y="31.1406">Employee</text><text fill="#000000" font-family="sans-serif" font-size="18" lengthAdjust="spacing" textLength="71" x="259.5" y="31.1406">Manager</text><text fill="#000000" font-family="sans-serif" font-size="18" lengthAdjust="spacing" textLength="59" x="453" y="31.1406">System</text><!--SRC=[ZP0zQiD048NxFSKSmFW0KXM7b860YZHfrjedPR5sHioEBGGwlFM7ZLEb7TxxtiTC7wdlP0GcbyshkU9TuGt46CZNjLpPIbTygTnY0FNGBEmxYjo89czH-8TnR8zqydpPpWTw2q6HS-dSzEdPjz395HMC1j5Bv9PguH2NSjxRttFeG5Xb4jZ8nXxbmsRfTLAlUmlrQLrKrtEAHhsYWIe2vT_OsBfTZTcGrcaEn6AnYHk3J2XjPg-I-zv_6TWz_ZYTGFxSOKdSuln86VY9d3bt]--></g></svg>